<svg viewBox="0 0 12.01 11.2" xmlns="http://www.w3.org/2000/svg">
<path d="M8.47,0c-.92,0-1.8.36-2.46,1C5.34.35,4.44,0,3.5,0c-.93,0-1.83.39-2.48,1.05C.36,1.72,0,2.61,0,3.55,0,7.21,5.59,10.99,5.84,11.15c.05.03.1.05.16.05.06,0,.12-.02.16-.05.24-.16,5.84-3.95,5.84-7.6h0c0-.94-.37-1.84-1.04-2.51C10.31.38,9.41,0,8.47,0h0ZM10.53,3.84h0c-.16,0-.29-.13-.29-.29,0-.47-.19-.92-.52-1.25-.33-.33-.78-.52-1.25-.52-.16,0-.29-.13-.29-.29s.13-.29.29-.29c.62,0,1.22.25,1.67.69.44.44.69,1.04.69,1.67,0,.16-.12.3-.29.3h0Z" fill="white"/>
</svg>