<svg viewBox="0 0 60 60" xmlns="http://www.w3.org/2000/svg">
<path d="M30.0466 0.861328C14.007 0.861328 0.883789 13.9846 0.883789 30.0241C0.883789 46.0637 14.007 59.1869 30.0466 59.1869C46.0861 59.1869 59.2094 46.0637 59.2094 30.0241C59.2094 13.9846 46.0861 0.861328 30.0466 0.861328ZM38.7954 32.9404H30.0466C28.2968 32.9404 27.1303 31.7739 27.1303 30.0241V15.4427C27.1303 13.693 28.2968 12.5264 30.0466 12.5264C31.7963 12.5264 32.9629 13.693 32.9629 15.4427V27.1078H38.7954C40.5452 27.1078 41.7117 28.2743 41.7117 30.0241C41.7117 31.7739 40.5452 32.9404 38.7954 32.9404Z" fill="#282828"/>
</svg>