<svg viewBox="0 0 72 73" xmlns="http://www.w3.org/2000/svg">
<path d="M38.143 3.44617C37.5194 3.70973 36.6843 4.12237 35.8051 4.57153C34.063 5.46426 33.5873 7.68842 34.7299 9.27964C34.7905 9.36378 34.8499 9.44978 34.9062 9.53825L40.3824 17.9304V17.931C40.6484 18.3393 41.0673 18.6245 41.5455 18.7217C42.0237 18.8188 42.5204 18.7204 42.9256 18.4482C50.3698 13.4333 60.0679 8.92762 70.5442 9.30503C71.0397 9.32731 71.5099 9.08479 71.7784 8.66782C72.0468 8.25084 72.0728 7.72187 71.847 7.28015C70.3976 4.49063 66.8243 0.477315 56.4862 0.0317956H56.4856C50.1935 -0.212582 43.9253 0.954114 38.143 3.44617Z" fill="#FF0000"/>
<path d="M7.18591 68.1169C8.91691 68.9268 10.8068 69.3413 12.7178 69.3295C16.533 69.3376 25.2318 68.9212 31.6924 65.3273C33.1246 64.5292 32.5307 62.3336 30.8931 62.4035C26.6233 62.5841 21.2312 61.5058 19.8175 55.3062C18.6235 50.042 20.5481 44.3849 22.8019 40.0103C23.0747 39.4813 23.1675 38.8781 23.0661 38.2916C22.9646 37.705 22.6744 37.1675 22.2395 36.761L13.1851 28.2828L13.1542 28.255C12.4712 27.5949 11.5277 27.2769 10.5843 27.3895C9.64145 27.5021 8.79892 28.0329 8.29039 28.8347C5.57399 33.169 3.41617 37.8295 1.86824 42.7052C1.86824 42.7052 -4.84705 62.3726 7.18543 68.117L7.18591 68.1169Z" fill="#FF0000"/>
<path d="M69.226 68.1114L61.2331 57.0107L64.3126 54.4296L64.312 54.4302C65.0142 53.8412 65.4534 52.998 65.5338 52.0854C65.6136 51.1722 65.3284 50.2653 64.7407 49.5631L64.5224 49.3026C64.3566 49.104 64.1184 48.9797 63.8604 48.9568C63.6024 48.9345 63.3463 49.0149 63.1477 49.1807L47.0682 62.6663C46.8696 62.8322 46.7453 63.0703 46.7224 63.3283C46.7001 63.5863 46.7806 63.8424 46.9464 64.041L47.1647 64.3015V64.3009C47.7537 65.003 48.5969 65.4423 49.5094 65.5227C50.4219 65.6031 51.3294 65.3179 52.0317 64.7296L55.1112 62.1485L64.6376 71.9531C65.3361 72.6714 66.4706 72.7289 67.2384 72.0855L68.0705 71.3889L68.9013 70.6923C69.6672 70.0488 69.8082 68.9241 69.2255 68.1112L69.226 68.1114Z" fill="#FF0000"/>
<path d="M14.2318 23.0743C14.3673 23.8668 14.7595 24.5931 15.3479 25.1413L48.8531 56.5145H48.8525C49.1135 56.7564 49.5138 56.7669 49.7878 56.5393L51.2231 55.3378C51.5225 55.086 51.5621 54.6387 51.3103 54.3387L22.1049 19.5271C21.4331 18.7259 21.4658 17.509 22.2466 16.8136C22.6326 16.4702 23.1411 16.297 23.6565 16.3341C24.1718 16.3718 24.65 16.6162 24.9816 17.0115L54.2488 51.8833V51.884C54.3694 52.0281 54.5426 52.1184 54.7301 52.1345C54.9175 52.1512 55.1037 52.0924 55.2479 51.9712L56.6831 50.7697V50.7691C56.9596 50.5384 57.0197 50.1362 56.8217 49.8343L31.7419 11.399C31.3039 10.7241 30.6574 10.2112 29.9014 9.93896L13.6002 4.07895H13.5996C13.0205 3.87046 12.3747 3.98492 11.9026 4.38085C11.4312 4.77618 11.2054 5.39237 11.3106 5.99933L14.2318 23.0743Z" fill="#FF0000"/>
</svg>