<svg viewBox="0 0 419 134" xmlns="http://www.w3.org/2000/svg">
<path d="M204.844 69.6383C203.82 75.15 201.364 81.2235 197.477 87.8588C193.701 94.3045 189.049 100.364 183.631 105.848C178.213 111.332 171.921 116.049 164.535 119.998C157.369 123.949 149.22 126.941 140.089 128.977C130.736 131.391 120.622 132.468 109.416 132.397L0.000138364 131.703L77.0776 0.13556L224.724 1.07209L210.064 26.0965L103.503 25.4206L93.841 41.914L162.171 42.3474C173.377 42.4185 182.158 43.6159 188.846 45.7514C195.423 48.0765 199.906 51.3398 202.519 55.162C205.129 59.3648 205.867 64.1266 204.844 69.6383ZM150.193 94.7896C152.625 92.5217 154.508 90.0599 156.396 86.8371C158.062 83.9934 159.177 81.3365 159.301 79.2442C159.535 76.9622 158.996 75.2463 157.357 73.9039C155.937 72.5629 153.306 71.7851 150.234 71.0045C146.721 70.6016 142.33 70.1932 137.057 70.1597L77.5148 69.7821L57.6345 103.717L117.176 104.094C122.449 104.128 127.174 103.968 131.354 103.233C135.202 102.686 138.945 101.568 141.919 100.255C145.225 98.7541 147.762 97.0576 150.193 94.7896Z" fill="white"/>
<path d="M399.455 69.6581C398.466 75.1761 396.048 81.2649 392.203 87.9244C388.467 94.3936 383.853 100.482 378.469 106C373.086 111.518 366.824 116.274 359.463 120.27C352.322 124.265 344.192 127.309 335.074 129.401C325.735 131.874 315.628 133.015 304.423 133.014L195.004 133.006L271.255 0.957789L418.905 0.968542L404.401 26.0844L297.839 26.0766L288.28 42.6303L356.612 42.6352C367.818 42.6361 376.606 43.7784 383.307 45.8719C389.899 48.1558 394.403 51.3908 397.039 55.1966C399.675 59.383 400.444 64.14 399.455 69.6581ZM344.963 95.1515C347.38 92.8684 349.248 90.3949 351.116 87.1603C352.764 84.3062 353.863 81.6423 353.973 79.5493C354.193 77.2659 353.643 75.5534 351.996 74.2213C350.568 72.8892 347.931 72.1279 344.855 71.3666C341.34 70.9858 336.945 70.6049 331.672 70.6045L272.129 70.6002L252.462 104.659L312.005 104.663C317.278 104.664 322.002 104.474 326.177 103.713C330.022 103.142 333.757 102.001 336.724 100.669C340.019 99.1471 342.546 97.4347 344.963 95.1515Z" fill="#8600FF"/>
</svg>