<svg width="81" height="76" viewBox="0 0 81 76" fill="none" xmlns="http://www.w3.org/2000/svg">
<path d="M55.2588 0.790843C49.7435 0.785095 44.4426 2.93204 40.4851 6.77455C36.4806 2.85809 31.088 0.688328 25.4874 0.737134C19.8867 0.78695 14.5343 3.05267 10.5997 7.03893C6.66509 11.0253 4.46932 16.4074 4.49336 22.008C4.49336 43.9487 38.0319 66.6491 39.5132 67.6032C39.8006 67.7957 40.1378 67.9002 40.4846 67.903C40.8362 67.904 41.1801 67.7996 41.4723 67.6032C42.9017 66.6499 76.4922 43.9497 76.4922 22.008H76.4931C76.5027 16.3748 74.2677 10.9696 70.2823 6.98817C66.2979 3.00671 60.8908 0.776375 55.2576 0.7906L55.2588 0.790843ZM67.6154 23.7383V23.7373C66.6401 23.7373 65.8498 22.9479 65.8498 21.9726C65.8498 19.1638 64.7346 16.4696 62.7478 14.4838C60.7618 12.4978 58.0679 11.3818 55.259 11.3818C54.2846 11.3818 53.4943 10.5915 53.4943 9.61621C53.4943 8.64189 54.2847 7.85153 55.259 7.85153C59.0047 7.85153 62.5965 9.33934 65.2445 11.9873C67.8925 14.6352 69.3802 18.2277 69.3802 21.9728C69.4003 22.9413 68.6368 23.7442 67.6682 23.7729L67.6154 23.7383Z" fill="#6AFF00"/>
<path d="M40.3602 19.5723L40.3674 30.1134L50.6412 30.1238L40.3674 30.1342L40.3602 49.0109L40.3529 30.1342L30.0791 30.1238L40.3529 30.1134L40.3602 19.5723Z" stroke="#0F0F0F" stroke-width="7.19112" stroke-linejoin="round"/>
<rect x="48.4014" y="10.8418" width="14.3274" height="24.4076" transform="rotate(-33.3133 48.4014 10.8418)" fill="#6AFF00"/>
</svg>