<svg viewBox="0 0 73 70" xmlns="http://www.w3.org/2000/svg">
<path d="M28.6858 0.444612C21.1003 -1.02986 12.94 1.16302 7.06428 7.02337C0.791185 13.2801 -1.29069 22.134 0.818646 30.1147C4.11116 27.2565 9.10809 27.3898 12.2414 30.515C13.337 31.6076 14.0658 32.9275 14.428 34.3226C16.9537 33.9593 19.6138 34.7468 21.557 36.685C23.0388 38.1629 23.8498 40.0565 23.9898 41.9895C25.9264 42.1301 27.8233 42.9388 29.304 44.4157C30.7856 45.8935 31.5966 47.7872 31.7368 49.7199C33.6758 49.859 35.5755 50.6677 37.058 52.1463C40.3311 55.411 40.3311 60.7034 37.058 63.9681L35.6967 65.3262L39.7009 69.1129C40.8135 70.165 42.5577 70.1389 43.6385 69.0538C44.6443 68.044 44.7338 66.4629 43.907 65.3517L43.6881 65.1321C43.5888 65.0324 43.4982 64.927 43.4164 64.8175L42.8269 64.226C41.6978 63.0921 41.6978 61.255 42.8269 60.1212C43.956 58.988 45.7867 58.988 46.916 60.1212L47.7271 60.9358C47.8981 61.1073 48.0597 61.284 48.2132 61.4653L48.6478 61.9021C49.719 62.9774 51.4559 62.9774 52.5272 61.9021C53.5984 60.8269 53.5984 59.083 52.5272 58.0077L51.6564 57.1334C51.0735 56.5488 50.7914 55.776 50.8105 55.0095C50.8076 54.2633 51.0898 53.5159 51.657 52.947C52.7861 51.8131 54.6169 51.8131 55.7461 52.947L56.406 53.6092C57.5937 54.8015 59.5195 54.8015 60.7077 53.6092C61.8954 52.4163 61.8954 50.4829 60.7077 49.2906L60.5606 49.1429C60.3816 48.9859 60.206 48.8219 60.0357 48.6504L55.5439 44.1418C54.4147 43.0084 54.4147 41.1708 55.5439 40.0374C56.6731 38.9039 58.5038 38.9039 59.633 40.0374L63.8537 44.2742C63.9522 44.3502 64.0466 44.4335 64.137 44.524L64.4805 44.8691C66.3188 46.3735 69.0303 46.2658 70.7434 44.546C72.5713 42.7112 72.5713 39.7365 70.7434 37.9018L66.4654 33.6074C66.4087 33.5581 66.3536 33.5064 66.3009 33.4524L48.9664 15.8279H44.5255L34.6103 23.3687C29.8126 27.0175 22.9618 26.0902 19.3067 21.2974C15.6498 16.5021 16.5767 9.65391 21.3768 6.00329L28.6858 0.444612Z" fill="#8600FF"/>
<path d="M50.1814 10.0357C50.9577 10.0357 51.7022 10.3476 52.2462 10.9013L67.8623 26.7788C70.7319 21.0995 70.4631 14.2556 66.9857 8.76672C65.0287 5.67676 62.2593 3.33185 59.0879 1.88825C59.0189 1.85685 58.9512 1.82285 58.8851 1.78617C57.0642 0.778084 54.9692 0.203125 52.7311 0.203125H38.5364C38.4479 0.290666 38.3532 0.372936 38.2528 0.449296L24.8845 10.6162C22.6337 12.328 22.1994 15.537 23.9142 17.7855C25.6308 20.0365 28.8506 20.4722 31.1038 18.7586L41.7962 10.6268C42.3004 10.2433 42.9163 10.0357 43.5498 10.0357H50.1814ZM25.2026 52.1477L21.398 55.9419C20.3905 56.9471 18.7569 56.9471 17.7494 55.9419C16.7653 54.9605 16.7424 53.3834 17.6805 52.3742L17.7531 52.3029L21.5576 48.5081L21.6263 48.4386C22.5118 47.6211 23.8325 47.5365 24.808 48.1854C24.9473 48.2781 25.0796 48.3859 25.2026 48.5081C26.2101 49.5133 26.2101 51.1425 25.2026 52.1477ZM25.5034 63.6729C26.2323 64.4 27.2889 64.601 28.1991 64.276C28.547 64.1514 28.8734 63.951 29.1521 63.6729L32.9566 59.8781C33.9642 58.8735 33.9642 57.2437 32.9566 56.2391C32.8307 56.1134 32.6949 56.0033 32.5519 55.9095C31.5504 55.2501 30.1895 55.3596 29.3079 56.2391L25.5034 60.0339C25.2248 60.3114 25.0232 60.637 24.8987 60.9841C24.5729 61.8919 24.7745 62.9458 25.5034 63.6729ZM8.20885 38.1963L4.4043 41.9909C3.39679 42.9958 1.76323 42.9958 0.75566 41.9909C-0.228385 41.0094 -0.251329 39.4324 0.686773 38.4231L0.759425 38.3515L4.56392 34.5569L4.63269 34.4876C5.51812 33.6697 6.83889 33.5852 7.81425 34.2342C7.95358 34.3269 8.08591 34.4345 8.20885 34.5572C9.21642 35.5621 9.21642 37.1914 8.20885 38.1963ZM16.7605 44.6442L12.956 48.4386C11.9484 49.4438 10.3148 49.4438 9.30732 48.4386C8.32327 47.4572 8.30027 45.8803 9.23843 44.871L9.31108 44.7994L13.1156 41.0049L13.1843 40.9356C14.0698 40.1176 15.3906 40.0331 16.3659 40.6821C16.5052 40.7748 16.6375 40.8825 16.7605 41.0051C17.7681 42.0101 17.7681 43.6393 16.7605 44.6442Z" fill="#8600FF"/>
</svg>