<svg width="72" height="84" viewBox="0 0 72 84" fill="none" xmlns="http://www.w3.org/2000/svg">
<path fill-rule="evenodd" clip-rule="evenodd" d="M33.9131 83.1419L18.9062 70.8629L18.905 70.8618C6.88979 61.0339 0 46.4956 0 30.9798V15.1927C0 13.8053 0.865229 12.5639 2.17304 12.0878L34.8704 0.197889C35.6039 -0.0659631 36.4028 -0.0659631 37.1296 0.197889L69.827 12.0878C71.1347 12.564 72 13.8054 72 15.1927L71.9992 30.9733C71.9992 46.4965 65.1102 61.0348 53.0951 70.8637L38.0881 83.1427C37.4875 83.6385 36.741 83.8892 36.001 83.8892C35.2611 83.8892 34.5146 83.6442 33.9131 83.1419ZM35.9798 16.6462C33.6071 16.6462 31.6836 18.5697 31.6836 20.9424V34.771H17.8555C15.4828 34.771 13.5594 36.6945 13.5594 39.0672C13.5594 41.4399 15.4828 43.3633 17.8555 43.3633H31.6836V57.1912C31.6836 59.5639 33.6071 61.4873 35.9798 61.4873C38.3525 61.4873 40.2759 59.5639 40.2759 57.1912V43.3633H54.1043C56.477 43.3633 58.4005 41.4399 58.4005 39.0672C58.4005 36.6945 56.477 34.771 54.1043 34.771H40.2759V20.9424C40.2759 18.5697 38.3525 16.6462 35.9798 16.6462Z" fill="#FFA200"/>
</svg>
